<svg width="14" height="14" viewBox="0 0 14 14" fill="none" xmlns="http://www.w3.org/2000/svg">
<g filter="url(#filter0_d_152_323)">
<path d="M1.67773 10.5673C1.70453 10.3261 1.71793 10.2055 1.75442 10.0928C1.7868 9.99277 1.83254 9.89759 1.89041 9.80983C1.95564 9.71092 2.04144 9.62512 2.21305 9.45351L9.91672 1.74985C10.5611 1.10552 11.6057 1.10552 12.2501 1.74985C12.8944 2.39418 12.8944 3.43885 12.2501 4.08319L4.54638 11.7868C4.37478 11.9585 4.28897 12.0443 4.19006 12.1095C4.1023 12.1673 4.00713 12.2131 3.90712 12.2455C3.79439 12.282 3.67379 12.2954 3.43259 12.3222L1.45837 12.5415L1.67773 10.5673Z" stroke="black" stroke-width="1.5" stroke-linecap="round" stroke-linejoin="round" shape-rendering="crispEdges"/>
</g>
<defs>
<filter id="filter0_d_152_323" x="-3.29163" y="0.516602" width="20.7749" height="20.7749" filterUnits="userSpaceOnUse" color-interpolation-filters="sRGB">
<feFlood flood-opacity="0" result="BackgroundImageFix"/>
<feColorMatrix in="SourceAlpha" type="matrix" values="0 0 0 0 0 0 0 0 0 0 0 0 0 0 0 0 0 0 127 0" result="hardAlpha"/>
<feOffset dy="4"/>
<feGaussianBlur stdDeviation="2"/>
<feComposite in2="hardAlpha" operator="out"/>
<feColorMatrix type="matrix" values="0 0 0 0 0 0 0 0 0 0 0 0 0 0 0 0 0 0 0.25 0"/>
<feBlend mode="normal" in2="BackgroundImageFix" result="effect1_dropShadow_152_323"/>
<feBlend mode="normal" in="SourceGraphic" in2="effect1_dropShadow_152_323" result="shape"/>
</filter>
</defs>
</svg>
