<svg width="15" height="16" viewBox="0 0 15 16" fill="none" xmlns="http://www.w3.org/2000/svg">
<path d="M2.50004 14.6667V11.3334M2.50004 4.66671V1.33337M0.833374 3.00004H4.16671M0.833374 13H4.16671M8.16671 2.00004L7.01059 5.00595C6.82258 5.49477 6.72858 5.73918 6.58239 5.94476C6.45283 6.12697 6.29364 6.28617 6.11143 6.41573C5.90585 6.56191 5.66144 6.65591 5.17261 6.84392L2.16671 8.00004L5.17262 9.15616C5.66144 9.34417 5.90585 9.43817 6.11143 9.58435C6.29364 9.71391 6.45283 9.87311 6.58239 10.0553C6.72858 10.2609 6.82258 10.5053 7.01059 10.9941L8.16671 14L9.32283 10.9941C9.51083 10.5053 9.60484 10.2609 9.75102 10.0553C9.88058 9.87311 10.0398 9.71391 10.222 9.58435C10.4276 9.43817 10.672 9.34417 11.1608 9.15616L14.1667 8.00004L11.1608 6.84392C10.672 6.65591 10.4276 6.56191 10.222 6.41573C10.0398 6.28617 9.88058 6.12697 9.75102 5.94476C9.60484 5.73918 9.51083 5.49477 9.32283 5.00595L8.16671 2.00004Z" stroke="black" stroke-width="1.5" stroke-linecap="round" stroke-linejoin="round"/>
</svg>
