<svg width="16" height="16" viewBox="0 0 16 16" fill="none" xmlns="http://www.w3.org/2000/svg">
<path d="M7.33333 3H7.62293C9.65443 3 10.6702 3 11.0558 3.36486C11.3891 3.68024 11.5368 4.14485 11.4468 4.59481C11.3427 5.11534 10.5134 5.7019 8.85486 6.87502L6.14515 8.79164C4.4866 9.96476 3.65733 10.5513 3.55322 11.0719C3.46324 11.5218 3.61094 11.9864 3.94424 12.3018C4.32982 12.6667 5.34557 12.6667 7.37707 12.6667H8M5 3C5 4.10457 4.10457 5 3 5C1.89543 5 1 4.10457 1 3C1 1.89543 1.89543 1 3 1C4.10457 1 5 1.89543 5 3ZM14.3333 12.3333C14.3333 13.4379 13.4379 14.3333 12.3333 14.3333C11.2288 14.3333 10.3333 13.4379 10.3333 12.3333C10.3333 11.2288 11.2288 10.3333 12.3333 10.3333C13.4379 10.3333 14.3333 11.2288 14.3333 12.3333Z" stroke="black" stroke-opacity="0.4" stroke-width="1.5" stroke-linecap="round" stroke-linejoin="round"/>
</svg>
