<svg width="16" height="14" viewBox="0 0 16 14" fill="none" xmlns="http://www.w3.org/2000/svg">
<path d="M5.66667 1L5 4.33333M10.3333 1L9.66667 4.33333M14.3333 4.33333H1M4.2 13H11.1333C12.2534 13 12.8135 13 13.2413 12.782C13.6176 12.5903 13.9236 12.2843 14.1153 11.908C14.3333 11.4802 14.3333 10.9201 14.3333 9.8V4.2C14.3333 3.0799 14.3333 2.51984 14.1153 2.09202C13.9236 1.71569 13.6176 1.40973 13.2413 1.21799C12.8135 1 12.2534 1 11.1333 1H4.2C3.0799 1 2.51984 1 2.09202 1.21799C1.71569 1.40973 1.40973 1.71569 1.21799 2.09202C1 2.51984 1 3.0799 1 4.2V9.8C1 10.9201 1 11.4802 1.21799 11.908C1.40973 12.2843 1.71569 12.5903 2.09202 12.782C2.51984 13 3.0799 13 4.2 13Z" stroke="black" stroke-opacity="0.6" stroke-width="1.5" stroke-linecap="round" stroke-linejoin="round"/>
</svg>
