<svg width="16" height="14" viewBox="0 0 16 14" fill="none" xmlns="http://www.w3.org/2000/svg">
<path d="M10.3333 1.31184C11.3211 1.80274 12 2.82209 12 4C12 5.17791 11.3211 6.19726 10.3333 6.68816M11.6667 10.1776C12.6743 10.6336 13.5817 11.3767 14.3333 12.3333M1 12.3333C2.29766 10.6817 4.05945 9.66667 6 9.66667C7.94055 9.66667 9.70234 10.6817 11 12.3333M9 4C9 5.65685 7.65685 7 6 7C4.34315 7 3 5.65685 3 4C3 2.34315 4.34315 1 6 1C7.65685 1 9 2.34315 9 4Z" stroke="black" stroke-opacity="0.4" stroke-width="1.5" stroke-linecap="round" stroke-linejoin="round"/>
</svg>
